<?xml version="1.0" encoding="UTF-8"?>
<svg id="Layer_1" data-name="Layer 1" xmlns="http://www.w3.org/2000/svg" viewBox="0 0 512 512" height="24" width="24">
  <defs>
    <style>
      .cls-1 {
        fill: #e35654;
        stroke-width: 0px;
      }
    </style>
  </defs>
  <path class="cls-1" d="M315.7,259.29c-2.68,26.81-5.97,53.57-7.85,80.43-1.39,19.88-3.1,40.15-.72,59.77,2.77,22.75,31.76,33.51,48.79,17.52,17.74-16.66,31.74-37.32,47.27-56.31,4.31-5.27,8.27-10.83,10.44-13.7,13.28,14.96,25.06,29.1,37.91,42.19,4.06,4.13,10.74,6.2,16.6,7.94,13.04,3.87,15.25,12.99,14.08,24.84-1.14,11.48-9.12,16.38-18.47,17.78-18.78,2.81-37.78,5.62-56.71,5.71-109.44.52-218.88.33-328.31.14-14.51-.03-28.82-1.63-39.59-13.61-9.98-11.1-8.55-29.43,5.27-33.53,38.32-11.37,49.45-44.09,62.54-75.32,15.35-36.6,33.02-71.29,66.33-95.25,2.37-1.7,4.56-3.65,6.97-5.29.66-.45,1.8-.2,4.84-.43-.46,7.16-1.04,14.07-1.33,21-1,24.25-4.36,48.72-2.21,72.69,2.56,28.5,28.01,37.84,51.75,18.35,24.29-19.94,45.48-43.67,67.74-66.04,3.56-3.58,5.57-8.7,8.3-13.11,2.11,1.41,4.22,2.83,6.33,4.24Z"/>
  <path class="cls-1" d="M333.85,391.26c2.27-35.75,4.88-71.49,6.69-107.26.98-19.43,1.45-38.96.52-58.37-.51-10.65-13.91-16.01-23.62-8.8-13.56,10.07-26.03,21.8-37.92,33.84-14.32,14.49-27.02,30.58-41.45,44.95-7.56,7.53-17.31,12.85-26.08,19.17-1.58-.74-3.16-1.48-4.74-2.21,0-8.86-.66-17.77.12-26.56,2.35-26.45,6.05-52.8,7.71-79.28,1.57-25.09-4.82-29.28-29.24-22.2-4.02,1.16-8.16,1.87-15.32,3.48,12.46-26.37,23.29-50.7,35.43-74.37,5.6-10.93,12.11-22.35,21.03-30.42,22.97-20.79,61.31-11.83,74.63,16.06,24.97,52.3,50,104.58,74.9,156.91,7.64,16.06,15.32,32.12,22.09,48.55,1.5,3.65.69,9.84-1.55,13.19-15.48,23.09-31.47,45.84-47.72,68.39-2.41,3.35-7.04,5.1-10.65,7.58l-4.82-2.67Z"/>
</svg>